<svg id="Layer_1" data-name="Layer 1" xmlns="http://www.w3.org/2000/svg" viewBox="0 0 24 24"><defs><style>.cls-1{fill:#e3dbdb;}</style></defs><title>favicon</title><path class="cls-1" d="M12.64.68A1,1,0,0,0,12,.92a2,2,0,0,0-.62.76L9.39,6a3.41,3.41,0,0,1-.63,1c-.17.16-.35.31-.58.24a.56.56,0,0,1-.4-.41,6.77,6.77,0,0,1-.13-1.19,11.11,11.11,0,0,0-.14-1.83c-.07-.28-.32-.9-.71-.92-.59,0-1,.86-1.27,1.37a9.29,9.29,0,0,0-.77,4.4c0,.21,0,.61,0,.61s.84-.28,1.27-.36a5.88,5.88,0,0,1,.75-.11,6.51,6.51,0,0,1,.77,0,6.79,6.79,0,0,1,.78,0,6.46,6.46,0,0,1,.75.11,7.5,7.5,0,0,1,1.42.42A8.18,8.18,0,0,1,11.8,10a7.5,7.5,0,0,1,1.13.89,8.48,8.48,0,0,1,.92,1.08A7.2,7.2,0,0,1,15,14.54q.07.36.12.72t0,.75q0,.38,0,.75c0,.24-.07.49-.12.73a7.29,7.29,0,0,1-.44,1.37c-.08.17-.16.33-.25.5l.09,0a10.51,10.51,0,0,0,2.56.21,9.43,9.43,0,0,0,4-.82c.4-.22.93-.54.94-1s-.4-.73-.76-.94a3.59,3.59,0,0,0-1.31-.31c-.61-.09-1.15,0-1.8-.08s-1.34-.17-1.45-.73.54-1,.93-1.36a31.06,31.06,0,0,1,2.61-1.95A32.27,32.27,0,0,0,22.92,10a4.63,4.63,0,0,0,.77-.83A1.8,1.8,0,0,0,24,8.29a.58.58,0,0,0-.28-.43,1.26,1.26,0,0,0-.84-.15,2.47,2.47,0,0,0-.88.18A21.25,21.25,0,0,0,19.62,9a10.85,10.85,0,0,1-1.72.9c-.37.1-.92.35-1.16,0s.14-.74.28-1.09a14.51,14.51,0,0,1,1.2-2c.45-.74,1-1.43,1.41-2.19a3.71,3.71,0,0,0,.54-1.16,1.38,1.38,0,0,0-.08-.92.71.71,0,0,0-.4-.34,1.58,1.58,0,0,0-.94.2,4.79,4.79,0,0,0-1.33.94c-1.1,1.15-2,2.16-3,3.23-.35.36-.83,1-1.3.81s-.26-.68-.22-1c.13-1,.35-2.13.47-3.21a7.24,7.24,0,0,0,.12-1.52,1.33,1.33,0,0,0-.2-.71.79.79,0,0,0-.5-.26ZM7.18,11.05a5.36,5.36,0,0,0-1,.09,5.42,5.42,0,0,0-.92.26l0,0v0a13.88,13.88,0,0,0,2.2,4.08,12.42,12.42,0,0,0,3.69,2.85h0l.06-.08a5.56,5.56,0,0,0,.45-.79,4.41,4.41,0,0,0,.28-.87,4.23,4.23,0,0,0,.1-.94,4.11,4.11,0,0,0-.1-.94,4.3,4.3,0,0,0-.28-.88,5.56,5.56,0,0,0-.45-.79,5,5,0,0,0-.6-.69,5,5,0,0,0-.72-.57,4.74,4.74,0,0,0-.84-.43,5.44,5.44,0,0,0-.92-.27A5.18,5.18,0,0,0,7.18,11.05Z"/><path class="cls-1" d="M12,16.35a5.17,5.17,0,0,1-.11.54l.06-.25A2.5,2.5,0,0,0,12,16.35Z"/><path class="cls-1" d="M11.24,13.1l-.2-.25c.12.15.23.31.34.47Z"/><path class="cls-1" d="M11.9,14.49a5.41,5.41,0,0,1,.12.58c0-.1,0-.2,0-.3S11.92,14.58,11.9,14.49Z"/><path class="cls-1" d="M11.84,10a5.74,5.74,0,0,1,.5.36A5.74,5.74,0,0,0,11.84,10Z"/><path class="cls-1" d="M9.92,11.84a5.11,5.11,0,0,0-.84-.43,5.44,5.44,0,0,0-.92-.27,5,5,0,0,0-1-.09,5,5,0,0,1,3.16,1.12A4.59,4.59,0,0,0,9.92,11.84Z"/><path class="cls-1" d="M9.82,9a8.39,8.39,0,0,0-1.25-.26l.53.09C9.34,8.91,9.58,9,9.82,9Z"/><path class="cls-1" d="M10.59,9.31l.53.25Z"/><path class="cls-1" d="M11.76,9.93l-.52-.31Z"/><path class="cls-1" d="M9.83,9c.22.06.42.14.63.22C10.25,9.18,10,9.1,9.83,9Z"/><path class="cls-1" d="M12.43,10.41a5.82,5.82,0,0,1,.45.4A5.82,5.82,0,0,0,12.43,10.41Z"/><path class="cls-1" d="M4.84,9.2,5.4,9Z"/><path class="cls-1" d="M6.54,8.78A8.07,8.07,0,0,0,5.41,9L6,8.86Z"/><path class="cls-1" d="M11.18,18.39l.06-.08a.83.83,0,0,1,.08-.12,5,5,0,0,1-4.14,2.18,4.78,4.78,0,0,1-4.9-4.66,4.78,4.78,0,0,1,4.9-4.66h0a5.36,5.36,0,0,0-1,.09,5.44,5.44,0,0,0-.92.27h0a9.06,9.06,0,0,1-.47-2.2A7.31,7.31,0,0,0,0,16a7.44,7.44,0,0,0,7.57,7.31,7.61,7.61,0,0,0,6.73-4A14.29,14.29,0,0,1,11.18,18.39Z"/><path class="cls-1" d="M14.34,19.29l.08-.16Z"/><path class="cls-1" d="M13.46,11.42c.12.14.23.29.34.43C13.69,11.71,13.58,11.56,13.46,11.42Z"/><path class="cls-1" d="M15.14,16v0Z"/><path class="cls-1" d="M15.07,15a7,7,0,0,0-1.18-3,6.84,6.84,0,0,1,.66,1.18A7.07,7.07,0,0,1,15,14.54C15,14.7,15.05,14.86,15.07,15Z"/><path class="cls-1" d="M13,10.89a5.23,5.23,0,0,1,.39.42A5.23,5.23,0,0,0,13,10.89Z"/><path class="cls-1" d="M15.07,17c0,.15-.05.31-.08.47a7.29,7.29,0,0,1-.44,1.37c0,.05-.05.1-.08.16A6.91,6.91,0,0,0,15.07,17Z"/></svg>